<?xml version="1.0" standalone="no"?>
<!DOCTYPE svg PUBLIC "-//W3C//DTD SVG 20010904//EN"
 "http://www.w3.org/TR/2001/REC-SVG-20010904/DTD/svg10.dtd">
<svg version="1.0" xmlns="http://www.w3.org/2000/svg"
 width="200.000000pt" height="200.000000pt" viewBox="0 0 200.000000 200.000000"
 preserveAspectRatio="xMidYMid meet">
<metadata>
Created by potrace 1.11, written by Peter Selinger 2001-2013
</metadata>
<g transform="translate(0.000000,200.000000) scale(0.100000,-0.100000)"
fill="#000000" stroke="none">
<path d="M1252 1918 c-7 -7 -12 -18 -12 -24 0 -20 -14 -24 -118 -33 -112 -10
-181 -38 -227 -93 -24 -28 -27 -38 -22 -79 l6 -47 -66 -28 -65 -28 -19 25
c-10 13 -19 31 -19 39 0 27 -40 82 -56 78 -11 -2 -25 -32 -41 -88 -27 -95 -57
-161 -90 -203 -68 -85 -82 -369 -22 -450 l20 -28 -30 -10 c-17 -6 -31 -15 -31
-20 0 -12 31 -11 49 0 21 13 36 4 65 -39 26 -39 26 -70 0 -70 -8 0 -19 -9 -26
-20 -10 -15 -24 -20 -54 -20 -28 0 -54 -8 -79 -25 -35 -24 -39 -25 -61 -10
-31 20 -38 52 -28 133 10 81 8 124 -9 134 -19 12 -82 9 -173 -9 -93 -18 -85
-8 -104 -117 -20 -118 -5 -194 51 -254 49 -52 96 -71 202 -78 53 -4 100 -10
105 -13 5 -3 33 -42 63 -86 l54 -80 1 -155 c1 -165 6 -205 32 -215 27 -10 36
11 21 47 -10 24 -13 74 -11 186 2 135 6 161 28 225 15 40 30 76 35 82 5 5 9
15 9 23 0 18 47 85 53 75 2 -4 8 -30 11 -56 13 -89 98 -157 213 -173 51 -6 55
-5 109 36 30 24 63 54 73 66 15 19 87 53 112 54 3 0 12 -33 19 -73 22 -125 17
-120 140 -115 86 4 121 11 195 38 50 19 111 49 137 67 26 18 51 33 55 33 22 0
80 -126 98 -211 8 -37 17 -122 21 -188 6 -112 8 -121 27 -121 19 0 20 4 13
145 l-7 144 28 7 c40 9 63 33 63 63 0 45 -53 133 -122 205 -38 38 -68 74 -68
79 0 6 -35 43 -77 83 l-77 72 34 28 c103 86 120 122 132 287 8 99 7 149 -3
211 -8 48 -12 141 -11 229 2 125 0 148 -13 153 -20 8 -58 -18 -116 -78 l-46
-48 -79 37 c-44 20 -81 38 -83 40 -2 1 3 11 12 21 42 46 0 117 -90 152 -72 29
-67 24 -53 50 9 16 9 25 -1 36 -14 17 -60 19 -77 2z m503 -330 c-11 -93 -9
-180 5 -222 8 -25 10 -89 8 -199 -4 -143 -7 -167 -26 -202 -27 -50 -47 -72
-95 -108 -62 -46 -84 -49 -161 -16 -69 30 -96 35 -96 21 0 -4 24 -16 53 -26
53 -19 74 -32 66 -40 -2 -3 -47 -14 -99 -26 -126 -27 -260 -34 -400 -21 -153
14 -330 67 -330 100 0 4 33 18 73 31 73 23 105 40 75 40 -10 0 -54 -12 -99
-26 l-82 -26 -26 33 c-14 19 -26 38 -26 44 0 6 46 11 118 13 88 2 117 6 114
15 -3 9 -40 11 -141 9 l-136 -3 -20 46 c-31 72 -28 85 19 85 44 0 144 -21 210
-45 53 -18 71 -19 71 -2 0 18 -202 67 -277 67 l-43 0 0 73 c0 113 21 186 64
222 22 18 36 39 36 53 0 12 4 30 9 40 6 9 16 37 23 62 7 25 18 45 23 44 6 0
21 -20 34 -43 28 -50 25 -50 154 4 82 34 92 36 132 26 57 -14 178 -14 285 0
130 18 146 16 254 -36 l99 -47 61 61 c33 33 65 61 69 61 5 0 6 -28 2 -62z
m-1088 -796 c32 -23 32 -25 17 -53 -8 -16 -17 -29 -20 -29 -4 0 -22 14 -41 30
-18 17 -40 30 -48 30 -23 0 -18 16 11 39 28 22 30 21 81 -17z m981 -66 c36
-19 112 -106 112 -129 0 -9 -130 -88 -176 -108 -94 -40 -130 -49 -211 -56
l-81 -6 -10 39 c-24 96 -24 97 -5 89 85 -34 167 -32 195 5 19 27 29 122 15
151 -6 12 -1 19 20 27 58 22 78 21 141 -12z m-805 -5 c23 -6 54 -12 70 -16 25
-5 27 -9 27 -54 0 -51 5 -60 57 -101 l28 -22 -39 -34 c-34 -29 -45 -33 -75
-28 -20 3 -56 16 -81 27 -57 28 -90 87 -90 162 0 75 16 85 103 66z m-232 -28
c13 -16 12 -17 -3 -4 -10 7 -18 15 -18 17 0 8 8 3 21 -13z m-41 -139 c0 -17
-34 -104 -40 -104 -12 0 -70 72 -70 87 0 10 15 14 93 21 9 1 17 -1 17 -4z
m1285 -31 c39 -38 85 -123 85 -159 0 -14 -8 -24 -22 -27 -29 -8 -35 -3 -43 36
-4 17 -22 62 -41 99 -50 99 -44 114 21 51z"/>
<path d="M918 1363 c-36 -9 -52 -138 -22 -181 11 -16 25 -22 50 -22 30 0 37 5
49 33 15 37 12 45 -10 27 -32 -27 -58 15 -39 64 9 24 43 19 54 -6 9 -23 9 -23
11 2 3 42 -1 54 -23 73 -20 17 -36 19 -70 10z"/>
<path d="M1273 1320 c-42 -25 -47 -66 -8 -56 21 5 27 2 35 -20 14 -35 -13 -68
-47 -59 -18 4 -23 1 -23 -15 0 -27 35 -60 64 -60 39 0 77 40 86 88 11 60 -6
121 -37 133 -32 12 -33 12 -70 -11z"/>
<path d="M1563 1130 c-39 -10 -86 -26 -105 -36 -47 -24 -98 -67 -98 -81 0 -19
8 -16 49 16 65 51 110 70 234 96 30 6 37 25 10 24 -10 0 -50 -9 -90 -19z"/>
<path d="M1084 1063 c-13 -61 -26 -83 -49 -83 -12 0 -28 7 -35 15 -15 18 -30
11 -30 -15 0 -31 46 -56 79 -43 21 7 32 7 46 -3 40 -30 105 -5 105 39 0 26
-17 29 -38 6 -24 -25 -33 -14 -37 46 -4 67 -29 90 -41 38z"/>
<path d="M1395 951 c-10 -17 11 -20 143 -18 127 2 158 8 110 21 -37 9 -246 7
-253 -3z"/>
<path d="M233 1700 c-68 -13 -157 -46 -176 -68 -8 -9 -18 -36 -22 -58 -5 -35
-3 -46 19 -70 24 -28 26 -29 123 -28 92 1 103 4 183 41 47 22 91 47 98 56 7 8
12 32 10 53 -2 30 -9 42 -33 55 -37 22 -133 31 -202 19z m187 -60 c13 -21 8
-32 -28 -56 -56 -38 -160 -65 -237 -62 -68 3 -70 4 -73 30 -5 45 14 66 81 88
77 25 241 25 257 0z"/>
<path d="M158 1250 c-35 -27 -40 -55 -16 -85 18 -23 27 -26 77 -24 100 4 164
68 111 111 -32 26 -138 25 -172 -2z m136 -29 c6 -9 -63 -41 -90 -41 -20 0 -30
30 -13 41 18 11 96 12 103 0z"/>
</g>
</svg>
